<?xml version="1.0" encoding="UTF-8" standalone="no"?>
<!-- Created with Inkscape (http://www.inkscape.org/) -->

<svg
   xmlns:dc="http://purl.org/dc/elements/1.1/"
   xmlns:cc="http://creativecommons.org/ns#"
   xmlns:rdf="http://www.w3.org/1999/02/22-rdf-syntax-ns#"
   xmlns:svg="http://www.w3.org/2000/svg"
   xmlns="http://www.w3.org/2000/svg"
   xmlns:sodipodi="http://sodipodi.sourceforge.net/DTD/sodipodi-0.dtd"
   xmlns:inkscape="http://www.inkscape.org/namespaces/inkscape"
   width="1080"
   height="1080"
   id="svg2"
   version="1.1"
   inkscape:version="0.48.4 r9939"
   sodipodi:docname="New document 1">
  <defs
     id="defs4" />
  <sodipodi:namedview
     id="base"
     pagecolor="#ffffff"
     bordercolor="#666666"
     borderopacity="1.0"
     inkscape:pageopacity="0"
     inkscape:pageshadow="2"
     inkscape:zoom="0.7"
     inkscape:cx="420.2479"
     inkscape:cy="538.59724"
     inkscape:document-units="px"
     inkscape:current-layer="layer1"
     showgrid="false"
     width="1080px"
     borderlayer="false"
     showborder="true"
     inkscape:showpageshadow="true"
     inkscape:window-width="1280"
     inkscape:window-height="992"
     inkscape:window-x="1920"
     inkscape:window-y="0"
     inkscape:window-maximized="1" />
  <metadata
     id="metadata7">
    <rdf:RDF>
      <cc:Work
         rdf:about="">
        <dc:format>image/svg+xml</dc:format>
        <dc:type
           rdf:resource="http://purl.org/dc/dcmitype/StillImage" />
        <dc:title></dc:title>
      </cc:Work>
    </rdf:RDF>
  </metadata>
  <g
     inkscape:label="Layer 1"
     inkscape:groupmode="layer"
     id="layer1"
     transform="translate(0,27.63779)">
    <path
       style="fill:#0868b2;fill-opacity:1;stroke:none"
       d="m 863.12751,603.01631 c 0,177.67045 -144.03034,321.70086 -321.70081,321.70086 -177.67044,0 -321.70081,-144.03041 -321.70081,-321.70086 l 0,-2e-5 -0.0141,-414.898 c 0,-50.83204 -4.86391,-92.03956 45.96813,-92.03956 l 547.48098,0.03519 c 50.83204,0 49.89671,41.20752 49.89671,92.03958 z"
       id="path3833-6-6"
       inkscape:connector-curvature="0"
       sodipodi:nodetypes="csscccccc" />
    <path
       style="fill:none;stroke:#ffffff;stroke-width:50;stroke-linecap:square;stroke-linejoin:round;stroke-miterlimit:4;stroke-opacity:1;stroke-dasharray:none;stroke-dashoffset:0"
       d="m 909.60281,616.39638 c 0,203.33748 -164.83759,351.74657 -368.17507,351.74657 -203.33749,0 -368.17509,-148.40909 -368.17509,-351.74657 l 0,-10e-6 -0.0162,-488.05024 c 0,-58.175446 36.44623,-92.121691 94.62169,-92.121691 l 538.47148,0.0402 c 58.17546,0 103.19313,34.660531 103.19313,92.835991 z"
       id="path3833"
       inkscape:connector-curvature="0"
       sodipodi:nodetypes="csscccccc" />
    <path
       style="fill:none;stroke:#00003c;stroke-width:42.49200058;stroke-linecap:square;stroke-linejoin:round;stroke-miterlimit:4;stroke-opacity:1;stroke-dasharray:none;stroke-dashoffset:0"
       d="m 884.30118,609.64521 c 0,189.35914 -153.50592,334.29368 -342.86505,334.29368 -189.35916,0 -342.86506,-144.93454 -342.86506,-334.29368 l 0,-10e-6 -0.0151,-462.50866 c 0,-54.17621 26.41851,-77.779624 80.5947,-77.779624 l 522.33839,0.0374 c 54.1762,0 82.73756,29.6328 82.73756,83.809004 z"
       id="path3833-7"
       inkscape:connector-curvature="0"
       sodipodi:nodetypes="csscccccc" />
    <path
       style="fill:none;stroke:#ff0000;stroke-width:15.05060387;stroke-linecap:square;stroke-linejoin:round;stroke-miterlimit:4;stroke-opacity:1;stroke-dasharray:none;stroke-dashoffset:0"
       d="m 865.49033,603.69655 c 0,178.97537 -145.08819,324.06363 -324.06357,324.06363 -178.97536,0 -324.06357,-145.08826 -324.06357,-324.06363 l 0,-10e-6 -0.0143,-443.03089 c 0,-51.20538 16.42454,-67.62993 67.62993,-67.62993 l 512.80978,0.03543 c 51.20539,0 67.63122,16.06749 67.63122,67.27288 z"
       id="path3833-6"
       inkscape:connector-curvature="0"
       sodipodi:nodetypes="csscccccc" />
    <text
       xml:space="preserve"
       style="font-size:224.11842346px;font-style:normal;font-variant:normal;font-weight:normal;font-stretch:normal;line-height:125%;letter-spacing:0px;word-spacing:0px;fill:#ffffff;fill-opacity:1;stroke:none;font-family:Nasalization;-inkscape-font-specification:Nasalization"
       x="234.58968"
       y="269.85455"
       id="text3941"
       sodipodi:linespacing="125%"><tspan
         sodipodi:role="line"
         id="tspan3943"
         x="234.58968"
         y="269.85455">EARS</tspan></text>
    <path
       style="fill:#00003c;fill-opacity:1;stroke:none"
       d="m 836.13477,592.30781 c 0,162.76309 -131.94555,302.86201 -294.70865,302.86201 -162.76309,0 -294.70866,-140.09892 -294.70866,-302.86201 l 0,-10e-6 -0.013,-241.32083 c 0,-46.56699 14.93675,-61.50374 61.50376,-61.50374 l 466.3575,0.0322 c 46.56702,0 61.50494,14.61203 61.50494,61.17903 z"
       id="path3833-6-1-8"
       inkscape:connector-curvature="0"
       sodipodi:nodetypes="csscccccc" />
    <path
       style="fill:none;stroke:#ffffff;stroke-width:15.56540203;stroke-linecap:square;stroke-linejoin:round;stroke-miterlimit:4;stroke-opacity:1;stroke-dasharray:none;stroke-dashoffset:0"
       d="m 836.13477,592.30781 c 0,162.76309 -131.94555,302.86201 -294.70865,302.86201 -162.76309,0 -294.70866,-140.09892 -294.70866,-302.86201 l 0,-10e-6 -0.013,-241.32083 c 0,-46.56699 14.93674,-61.50374 61.50375,-61.50374 l 466.35751,0.0322 c 46.56702,0 61.50494,14.61203 61.50494,61.17903 z"
       id="path3833-6-1"
       inkscape:connector-curvature="0"
       sodipodi:nodetypes="csscccccc" />
  </g>
</svg>
